# xmcd CD database file
#
# Track frame offsets:
#	150
#	10233
#	26941
#	37367
#	52690
#	61441
#	75253
#	90619
#	101261
#	116154
#	131044
#	145686
#
# Disc length: 2107 seconds
#
# Revision: 0
# Processed by: cddbd v1.5.2PL0 Copyright (c) Steve Scherf et al.
# Submitted via: CDex 1.51
#
DISCID=9a08390c
DTITLE=Alwin Schönberger - First Blues
DYEAR=2010
DGENRE=Blues
TTITLE0=Good Morning Blues
TTITLE1=Tricky Woman
TTITLE2=When I First Met The Blues
TTITLE3=At The Break Of Day
TTITLE4=Windy And Warm
TTITLE5=Love Spell
TTITLE6=Bluesman
TTITLE7=Reader's Break
TTITLE8=Hesitation Blues
TTITLE9=My Starter Won`t Start
TTITLE10=Salty Dog
TTITLE11=Blues For Closing
EXTD=YEAR: 2010
EXTT0=
EXTT1=
EXTT2=
EXTT3=
EXTT4=
EXTT5=
EXTT6=
EXTT7=
EXTT8=
EXTT9=
EXTT10=
EXTT11=
PLAYORDER=
